{"glyphs":{"0":{"ha":900,"x_min":15,"x_max":863,"o":"m 439 813 l 439 813 q 652 758 556 813 q 806 611 749 703 q 863 407 863 519 l 863 407 q 806 202 863 294 q 652 55 749 110 q 439 0 556 0 l 439 0 q 226 55 322 0 q 72 202 130 110 q 15 407 15 294 l 15 407 q 72 611 15 519 q 226 758 130 703 q 439 813 322 813 z m 439 274 l 439 274 q 543 315 500 274 q 587 415 587 357 l 587 415 q 543 514 587 473 q 439 555 500 555 l 439 555 q 335 514 378 555 q 292 415 292 473 l 292 415 q 335 315 292 357 q 439 274 378 274 z "},"1":{"ha":441,"x_min":-14,"x_max":352,"o":"m -14 579 l 94 813 l 352 813 l 352 0 l 94 0 l 94 579 l -14 579 z "},"2":{"ha":688,"x_min":18,"x_max":627,"o":"m 411 258 l 627 258 l 627 0 l 18 0 l 18 224 q 293 417 205 346 q 380 529 380 489 l 380 529 q 365 567 380 554 q 328 579 351 579 l 328 579 q 285 565 300 579 q 271 518 271 550 l 271 518 l 271 502 l 28 502 l 28 513 q 63 670 28 602 q 165 775 98 737 q 326 813 231 813 l 326 813 q 544 744 461 813 q 627 563 627 675 l 627 563 q 608 459 627 505 q 558 378 589 414 q 488 313 526 342 q 411 258 450 284 l 411 258 z "},"3":{"ha":650,"x_min":-3,"x_max":610,"o":"m 587 694 l 444 527 q 566 437 522 501 q 610 286 610 373 l 610 286 q 524 80 610 160 q 301 0 437 0 l 301 0 q 85 78 170 0 l 85 78 q -2 286 2 157 l -2 286 l -3 294 l 237 294 l 237 286 q 254 237 238 258 q 302 216 271 216 l 302 216 q 353 237 335 216 q 371 286 371 259 l 371 286 q 352 335 371 314 q 298 355 334 355 l 298 355 l 162 355 l 162 479 l 266 579 l 57 579 l 57 813 l 587 813 l 587 694 z "},"4":{"ha":686,"x_min":1,"x_max":650,"o":"m 577 813 l 577 364 l 650 364 l 650 106 l 577 106 l 577 0 l 319 0 l 319 106 l 1 106 l 1 292 l 346 813 l 577 813 z m 240 303 l 326 303 l 326 448 l 240 303 z "},"5":{"ha":694,"x_min":43,"x_max":660,"o":"m 288 554 l 347 554 q 575 479 491 554 q 660 283 660 405 l 660 283 q 576 78 660 156 q 349 0 492 0 l 349 0 q 125 79 208 0 q 43 287 43 158 l 43 287 l 43 297 l 286 297 l 286 287 q 301 242 286 261 q 349 223 315 223 l 349 223 q 395 241 380 223 q 409 283 409 260 l 409 283 q 394 329 409 307 q 347 350 380 350 l 347 350 l 43 350 l 43 813 l 602 813 l 602 596 l 288 596 l 288 554 z "},"6":{"ha":701,"x_min":5,"x_max":673,"o":"m 524 813 l 413 614 q 542 575 484 610 q 637 477 601 540 q 673 328 673 414 l 673 328 q 628 163 673 238 q 507 44 583 89 q 338 0 431 0 l 338 0 q 171 44 247 0 q 50 163 95 89 q 5 328 5 238 l 5 328 q 54 499 5 422 l 54 499 l 229 813 l 524 813 z m 338 258 l 338 258 q 393 278 370 258 q 415 328 415 299 l 415 328 q 393 378 415 357 q 338 399 370 399 l 338 399 q 275 367 299 399 l 275 367 l 268 354 q 262 328 262 342 l 262 328 q 285 278 262 299 q 338 258 307 258 z "},"7":{"ha":633,"x_min":8,"x_max":601,"o":"m 8 579 l 8 813 l 601 813 l 601 619 l 338 0 l 63 0 l 186 303 l 53 303 l 53 531 l 279 531 l 298 579 l 8 579 z "},"8":{"ha":689,"x_min":21,"x_max":648,"o":"m 587 452 l 587 452 q 648 283 648 378 l 648 283 q 605 141 648 205 q 492 38 563 77 q 334 0 420 0 l 334 0 q 176 38 248 0 q 63 141 105 77 q 21 283 21 205 l 21 283 q 81 452 21 378 l 81 452 q 47 568 47 505 l 47 568 q 86 691 47 635 q 190 780 125 747 q 334 813 255 813 l 334 813 q 478 780 413 813 q 582 691 543 747 q 621 568 621 635 l 621 568 q 587 452 621 505 z m 334 579 l 334 579 q 304 567 317 579 q 292 537 292 555 l 292 537 q 304 508 292 520 q 334 495 317 495 l 334 495 q 363 508 351 495 q 376 537 376 520 l 376 537 q 363 567 376 555 q 334 579 351 579 z m 334 248 l 334 248 q 373 264 357 248 q 389 303 389 280 l 389 303 q 388 316 389 310 l 388 316 q 369 347 383 334 q 334 359 354 359 l 334 359 q 300 347 315 359 q 280 316 285 334 l 280 316 q 279 303 279 310 l 279 303 q 295 264 279 280 q 334 248 311 248 z "},"9":{"ha":702,"x_min":3,"x_max":671,"o":"m 151 0 l 262 199 q 133 238 192 203 q 39 336 75 273 q 3 485 3 399 l 3 485 q 48 650 3 575 q 169 769 93 724 q 336 813 245 813 l 336 813 q 505 769 429 813 q 626 650 581 724 q 671 485 671 575 l 671 485 q 622 314 671 391 l 622 314 l 447 0 l 151 0 z m 336 555 l 336 555 q 283 535 305 555 q 260 485 260 514 l 260 485 q 283 435 260 456 q 336 414 305 414 l 336 414 q 400 446 376 414 l 400 446 l 408 459 q 413 485 413 471 l 413 485 q 391 535 413 514 q 336 555 368 555 z "}," ":{"ha":345,"x_min":null,"x_max":null,"o":""},"!":{"ha":326,"x_min":34,"x_max":292,"o":"m 292 321 l 34 222 l 34 813 l 292 813 l 292 321 z m 292 0 l 34 0 l 34 178 l 292 178 l 292 0 z "},"\"":{"ha":631,"x_min":34,"x_max":597,"o":"m 292 546 l 34 431 l 34 813 l 292 813 l 292 546 z m 597 546 l 339 431 l 339 813 l 597 813 l 597 546 z "},"#":{"ha":827,"x_min":44,"x_max":754,"o":"m 452 813 l 710 813 l 710 712 l 754 712 l 754 454 l 710 454 l 710 358 l 754 358 l 754 100 l 710 100 l 710 0 l 452 0 l 452 100 l 347 100 l 347 0 l 89 0 l 89 100 l 44 100 l 44 358 l 89 358 l 89 454 l 44 454 l 44 712 l 89 712 l 89 813 l 347 813 l 347 712 l 452 712 l 452 813 z m 347 358 l 452 358 l 452 454 l 347 454 l 347 358 z "},"$":{"ha":741,"x_min":21,"x_max":705,"o":"m 431 509 l 435 508 q 525 483 479 498 q 612 441 572 467 q 679 371 653 414 q 705 260 705 328 l 705 260 q 648 97 705 162 q 486 8 591 33 l 486 8 l 486 -154 l 240 -154 l 240 7 q 78 98 135 33 q 21 264 21 164 l 21 264 l 21 267 l 309 267 l 309 264 q 361 212 309 216 l 361 212 q 395 221 379 212 q 412 254 412 231 l 412 254 q 396 284 412 273 q 355 304 381 296 q 298 320 330 312 l 298 320 l 290 322 q 203 345 248 331 q 120 386 159 359 q 56 456 81 412 q 31 570 31 500 l 31 570 q 85 723 31 662 q 240 806 140 783 l 240 806 l 240 930 l 486 930 l 486 802 q 626 715 577 777 q 675 564 675 654 l 675 564 l 675 562 l 399 562 l 399 564 q 356 608 399 606 l 356 608 q 314 574 316 608 l 314 574 q 330 546 314 557 q 372 526 345 534 q 431 509 398 517 l 431 509 z "},"%":{"ha":1376,"x_min":-5,"x_max":1354,"o":"m 543 539 l 543 539 q 506 401 543 464 q 407 302 469 339 q 269 265 345 265 l 269 265 q 131 302 193 265 q 32 401 68 339 q -5 539 -5 464 l -5 539 q 32 677 -5 615 q 131 776 68 739 q 269 813 193 813 l 269 813 q 407 776 345 813 q 506 677 469 739 q 543 539 543 615 z m 269 495 l 269 495 q 300 508 287 495 q 313 539 313 521 l 313 539 q 300 570 313 557 q 269 583 287 583 l 269 583 q 237 570 250 583 q 224 539 224 557 l 224 539 q 237 508 224 521 q 269 495 250 495 z m 1080 548 l 1080 548 q 1218 511 1156 548 q 1317 412 1280 474 q 1354 274 1354 349 l 1354 274 q 1317 136 1354 198 q 1218 37 1280 74 q 1080 0 1156 0 l 1080 0 q 943 37 1005 0 q 843 136 880 74 q 806 274 806 198 l 806 274 q 843 412 806 349 q 943 511 880 474 q 1080 548 1005 548 z m 1080 230 l 1080 230 q 1112 243 1099 230 q 1124 274 1124 256 l 1124 274 q 1112 305 1124 292 q 1080 318 1099 318 l 1080 318 q 1049 305 1062 318 q 1036 274 1036 292 l 1036 274 q 1049 243 1036 256 q 1080 230 1062 230 z m 387 0 l 687 813 l 962 813 l 663 0 l 387 0 z "},"&":{"ha":818,"x_min":3,"x_max":855,"o":"m 794 244 l 691 165 q 839 16 751 105 l 839 16 l 855 0 l 582 0 l 579 3 q 557 23 569 12 l 557 23 q 538 41 547 33 l 538 41 q 299 -17 425 -17 l 299 -17 q 86 51 170 -17 q 3 221 3 118 l 3 221 q 25 315 3 275 q 80 385 47 355 q 146 434 113 414 l 146 434 q 82 536 98 495 q 66 614 66 577 l 66 614 q 92 712 66 672 q 159 777 117 752 q 251 812 201 801 q 350 823 300 823 l 350 823 q 542 774 460 823 l 542 774 q 631 615 631 714 l 631 615 q 608 520 631 562 q 546 447 584 479 q 466 391 509 416 l 466 391 q 524 332 490 366 l 524 332 l 547 309 l 652 387 l 794 244 z m 316 180 l 316 180 q 378 192 346 180 l 378 192 q 287 281 327 241 l 287 281 q 258 228 258 255 l 258 228 q 274 193 258 205 q 316 180 290 180 z m 337 538 l 337 538 q 388 604 388 571 l 388 604 q 375 631 388 623 q 350 639 361 639 l 350 639 q 323 631 336 639 q 311 604 311 623 l 311 604 q 337 538 311 577 z "},"'":{"ha":326,"x_min":34,"x_max":292,"o":"m 292 546 l 34 431 l 34 813 l 292 813 l 292 546 z "},"(":{"ha":403,"x_min":33,"x_max":437,"o":"m 436 982 l 410 924 q 290 404 290 663 l 290 404 q 410 -111 290 145 l 410 -111 l 437 -170 l 154 -170 q 33 405 33 117 l 33 405 q 154 982 33 692 l 154 982 l 436 982 z "},")":{"ha":410,"x_min":-56,"x_max":347,"o":"m -30 924 l -56 982 l 227 982 q 347 405 347 692 l 347 405 q 227 -170 347 117 l 227 -170 l -56 -170 l -30 -111 q 90 405 90 146 l 90 405 q -30 924 90 664 l -30 924 z "},"*":{"ha":615,"x_min":34,"x_max":581,"o":"m 407 732 l 475 776 l 581 608 l 493 552 l 581 496 l 475 328 l 407 372 l 407 291 l 208 291 l 208 372 l 140 328 l 34 496 l 123 552 l 34 608 l 140 776 l 208 732 l 208 813 l 407 813 l 407 732 z "},"+":{"ha":593,"x_min":34,"x_max":559,"o":"m 178 669 l 416 669 l 416 526 l 559 526 l 559 288 l 416 288 l 416 143 l 178 143 l 178 288 l 34 288 l 34 526 l 178 526 l 178 669 z "},",":{"ha":326,"x_min":34,"x_max":292,"o":"m 292 0 l 34 -115 l 34 210 l 292 210 l 292 0 z "},"-":{"ha":488,"x_min":34,"x_max":454,"o":"m 454 288 l 34 288 l 34 526 l 454 526 l 454 288 z "},".":{"ha":326,"x_min":34,"x_max":292,"o":"m 292 0 l 34 0 l 34 210 l 292 210 l 292 0 z "},"/":{"ha":450,"x_min":-36,"x_max":510,"o":"m -36 -170 l 245 982 l 510 982 l 229 -170 l -36 -170 z "},":":{"ha":326,"x_min":34,"x_max":292,"o":"m 292 0 l 34 0 l 34 210 l 292 210 l 292 0 z m 292 369 l 34 369 l 34 578 l 292 578 l 292 369 z "},";":{"ha":326,"x_min":34,"x_max":292,"o":"m 292 369 l 34 369 l 34 578 l 292 578 l 292 369 z m 292 0 l 34 -115 l 34 210 l 292 210 l 292 0 z "},"<":{"ha":516,"x_min":9,"x_max":436,"o":"m 436 31 l 9 404 l 9 701 l 436 701 l 436 439 l 271 439 l 436 315 l 436 31 z "},"=":{"ha":637,"x_min":33,"x_max":559,"o":"m 559 433 l 33 433 l 33 671 l 559 671 l 559 433 z m 559 142 l 33 142 l 33 380 l 559 380 l 559 142 z "},">":{"ha":516,"x_min":45,"x_max":472,"o":"m 210 332 l 45 457 l 45 742 l 472 368 l 472 71 l 45 71 l 45 332 l 210 332 z "},"?":{"ha":671,"x_min":-37,"x_max":648,"o":"m 422 0 l 165 0 l 165 178 l 422 178 l 422 0 z m 558 751 l 558 751 q 648 570 648 677 l 648 570 q 627 476 648 514 q 573 412 605 438 q 510 365 542 385 l 510 365 q 468 334 487 349 q 437 302 449 319 q 425 264 425 286 l 425 264 l 425 238 l 163 238 l 163 264 q 184 377 163 334 q 235 447 205 420 q 294 491 265 473 l 294 491 l 296 493 q 343 527 326 511 q 359 565 359 543 l 359 565 q 345 600 359 587 q 304 612 330 612 l 304 612 q 262 599 278 612 q 246 564 246 586 l 246 564 l 246 554 l -37 554 l -37 564 q 56 755 -37 683 l 56 755 q 304 823 151 823 l 304 823 q 558 751 462 823 z "},"@":{"ha":345,"x_min":null,"x_max":null,"o":""},"A":{"ha":1138,"x_min":-678,"x_max":1104,"o":"m 445 -630 l -678 -1727 l 656 863 l 342 682 l 1104 1364 l 878 937 l 846 -20 l 540 -351 l 652 275 l 524 275 l -11 -904 l 445 -630 z m 626 498 l 697 498 l 708 642 l 626 498 z "},"B":{"ha":1053,"x_min":-678,"x_max":1019,"o":"m 1019 381 l 861 313 l 1019 241 l 1019 -15 l -678 -1727 l 585 768 l 278 594 l 669 959 l 985 1348 l 727 746 l 1019 813 l 1019 381 z m 146 -605 l 734 -73 l 764 161 l 514 256 l 146 -605 z m 587 427 l 793 433 l 814 591 l 631 524 l 587 427 z "},"C":{"ha":1053,"x_min":-678,"x_max":1019,"o":"m 1019 513 l 819 593 l 631 524 l 180 -524 l 817 2 l 1019 281 l 1019 -15 l -678 -1727 l 584 768 l 278 594 l 669 959 l 985 1348 l 726 746 l 1019 813 l 1019 513 z "},"D":{"ha":1053,"x_min":-678,"x_max":1019,"o":"m 985 1348 l 727 746 l 1019 813 l 1019 258 l 781 -256 l -678 -1727 l 585 768 l 279 594 l 669 959 l 985 1348 z m 814 591 l 631 524 l 146 -605 l 767 187 l 814 591 z "},"E":{"ha":1053,"x_min":-678,"x_max":1019,"o":"m 1019 446 l 840 579 l 654 579 l 586 420 l 829 420 l 783 138 l 508 238 l 180 -524 l 817 2 l 1019 281 l 1019 -15 l -678 -1727 l 584 768 l 278 594 l 669 959 l 985 1348 l 755 813 l 1019 813 l 1019 446 z "},"F":{"ha":1053,"x_min":-678,"x_max":1019,"o":"m 985 1348 l 756 813 l 1019 813 l 1019 446 l 840 579 l 655 579 l 587 420 l 829 420 l 783 138 l 508 238 l 31 -865 l 420 -630 l -678 -1727 l 585 768 l 279 594 l 669 959 l 985 1348 z "},"G":{"ha":1053,"x_min":-678,"x_max":1019,"o":"m 1019 513 l 819 593 l 631 524 l 180 -524 l 713 -83 l 751 166 l 678 393 l 1019 393 l 1019 -15 l -678 -1727 l 584 768 l 278 594 l 669 959 l 985 1348 l 726 746 l 1019 813 l 1019 513 z "},"H":{"ha":1019,"x_min":-678,"x_max":985,"o":"m 621 498 l 745 498 l 791 813 l 975 813 l 975 -15 l 621 -359 l 713 275 l 524 275 l 18 -903 l 377 -661 l -678 -1727 l 585 768 l 279 594 l 669 959 l 985 1348 l 621 498 z "},"I":{"ha":1091,"x_min":-678,"x_max":1057,"o":"m 1057 813 l 1057 579 l 976 606 l 976 214 l 1057 293 l 1057 63 l -678 -1727 l -338 -1055 l 660 -91 l 770 673 l 557 743 l 297 594 l 688 959 l 1004 1348 l 774 813 l 1057 813 z "},"J":{"ha":1042,"x_min":-678,"x_max":1008,"o":"m 982 1348 l 719 779 l 1008 813 l 1008 -15 l -678 -1703 l 176 -28 l 73 -745 l 694 -31 l 803 615 l 532 684 l 269 594 l 675 970 l 982 1348 z "},"K":{"ha":1043,"x_min":-678,"x_max":1009,"o":"m 1009 813 l 1009 489 l 906 559 l 740 418 l 1009 -15 l 905 -116 l 654 -359 l 699 -45 l 559 241 l 481 174 l 18 -903 l 377 -661 l -678 -1727 l 585 768 l 279 594 l 669 959 l 986 1348 l 636 534 l 897 813 l 1009 813 z "},"L":{"ha":1053,"x_min":-678,"x_max":1019,"o":"m 180 -524 l 817 2 l 1019 281 l 1019 -15 l -678 -1727 l 584 768 l 278 594 l 669 959 l 985 1348 l 180 -524 z "},"M":{"ha":1043,"x_min":-678,"x_max":1009,"o":"m 377 -661 l -678 -1727 l 585 768 l 279 594 l 669 959 l 986 1348 l 660 637 l 691 547 l 1009 813 l 1009 -15 l 654 -359 l 759 362 l 637 174 l 557 347 l 18 -903 l 377 -661 z "},"N":{"ha":1043,"x_min":-678,"x_max":1009,"o":"m 777 182 l 846 813 l 1009 813 l 1009 -15 l 726 -288 l 574 392 l 18 -903 l 376 -661 l -678 -1727 l 585 768 l 278 594 l 669 959 l 985 1348 l 692 666 l 777 182 z "},"O":{"ha":1053,"x_min":-678,"x_max":1019,"o":"m 985 1348 l 727 746 l 1019 813 l 1019 -15 l -678 -1727 l 584 768 l 278 594 l 669 959 l 985 1348 z m 814 591 l 631 524 l 146 -605 l 751 58 l 814 591 z "},"P":{"ha":1053,"x_min":-678,"x_max":1019,"o":"m 1019 813 l 1019 334 l 450 101 l 18 -903 l 376 -661 l -678 -1727 l 585 768 l 279 594 l 669 959 l 985 1348 l 728 749 l 1019 813 z m 800 422 l 823 609 l 632 524 l 572 386 l 800 422 z "},"Q":{"ha":1097,"x_min":-678,"x_max":1063,"o":"m 731 -306 l 1063 -651 l 681 -651 l 565 -473 l -678 -1727 l 585 768 l 279 594 l 669 959 l 985 1348 l 727 746 l 1019 813 l 1019 -15 l 731 -306 z m 814 591 l 631 524 l 382 -58 l 545 -168 l 751 58 l 814 591 z m 347 -140 l 146 -605 l 440 -283 l 347 -140 z "},"R":{"ha":1053,"x_min":-678,"x_max":1019,"o":"m 728 749 l 1019 813 l 1019 412 l 679 273 l 1015 -15 l 911 -116 l 660 -359 l 705 -45 l 478 168 l 18 -903 l 377 -661 l -678 -1727 l 585 768 l 279 594 l 669 959 l 985 1348 l 728 749 z m 586 417 l 808 469 l 823 609 l 632 524 l 586 417 z "},"S":{"ha":1042,"x_min":-678,"x_max":1008,"o":"m 1008 513 l 808 593 l 621 524 l 589 450 l 1008 303 l 1008 -15 l -678 -1703 l 176 -28 l 73 -745 l 694 -31 l 734 205 l 380 378 l 574 768 l 268 594 l 659 959 l 975 1348 l 716 746 l 1008 813 l 1008 513 z "},"T":{"ha":1037,"x_min":-678,"x_max":1003,"o":"m 977 1348 l 709 767 l 1003 813 l 1003 446 l 840 605 l 758 624 l 731 -273 l -678 -1703 l 433 -226 l 622 657 l 520 682 l 264 594 l 671 970 l 977 1348 z "},"U":{"ha":1053,"x_min":-678,"x_max":1019,"o":"m 751 58 l 846 813 l 1019 813 l 1019 -15 l -678 -1727 l 585 768 l 279 594 l 669 959 l 985 1348 l 146 -605 l 751 58 z "},"V":{"ha":1053,"x_min":-678,"x_max":1019,"o":"m 146 -605 l 573 -138 l 1019 890 l 1019 258 l 578 -499 l -678 -1727 l 585 768 l 279 594 l 669 959 l 985 1348 l 146 -605 z "},"W":{"ha":1055,"x_min":-678,"x_max":1021,"o":"m 775 -16 l 890 813 l 1021 813 l 1021 -15 l 648 -368 l 580 -137 l -41 -940 l 384 -667 l -678 -1727 l 584 768 l 278 594 l 669 959 l 985 1348 l 352 -125 l 703 323 l 775 -16 z "},"X":{"ha":1043,"x_min":-678,"x_max":1009,"o":"m 1009 813 l 1009 489 l 906 559 l 798 440 l 1009 -15 l 905 -116 l 654 -359 l 699 -45 l 627 234 l 393 -28 l 18 -903 l 377 -661 l -678 -1727 l 254 100 l 593 466 l 541 743 l 279 594 l 669 959 l 986 1348 l 749 813 l 754 605 l 897 813 l 1009 813 z "},"Y":{"ha":1065,"x_min":-678,"x_max":1031,"o":"m 736 712 l 764 531 l 1031 813 l 1031 293 l 910 445 l 785 260 l 770 -247 l -678 -1727 l 463 -232 l 612 319 l 512 713 l 302 594 l 692 959 l 1009 1348 l 736 712 z "},"Z":{"ha":1053,"x_min":-678,"x_max":1019,"o":"m 1019 813 l 1019 555 l 445 90 l 181 -524 l 817 2 l 1019 281 l 1019 -15 l -678 -1727 l 372 348 l 814 615 l 544 684 l 280 594 l 687 970 l 994 1348 l 731 779 l 1019 813 z "},"[":{"ha":461,"x_min":54,"x_max":431,"o":"m 431 -170 l 54 -170 l 54 982 l 431 982 l 431 724 l 312 724 l 312 88 l 431 88 l 431 -170 z "},"\\":{"ha":450,"x_min":-60,"x_max":486,"o":"m -60 982 l 205 982 l 486 -170 l 220 -170 l -60 982 z "},"]":{"ha":462,"x_min":-3,"x_max":374,"o":"m 374 982 l 374 -170 l -3 -170 l -3 88 l 116 88 l 116 724 l -3 724 l -3 982 l 374 982 z "},"^":{"ha":707,"x_min":34,"x_max":673,"o":"m 34 406 l 391 813 l 673 813 l 673 406 l 424 406 l 424 564 l 305 406 l 34 406 z "},"_":{"ha":611,"x_min":34,"x_max":577,"o":"m 577 -264 l 34 -264 l 34 -26 l 577 -26 l 577 -264 z "},"`":{"ha":345,"x_min":null,"x_max":null,"o":""},"a":{"ha":760,"x_min":54,"x_max":705,"o":"m 54 0 l 429 813 l 705 813 l 705 0 l 468 0 l 468 275 l 349 0 l 54 0 z m 437 418 l 508 418 l 508 538 l 437 418 z "},"b":{"ha":764,"x_min":54,"x_max":710,"o":"m 690 618 l 690 618 q 674 530 690 565 q 634 473 658 494 q 587 441 610 452 q 547 428 564 431 l 547 428 l 531 425 l 549 422 q 594 408 568 419 q 647 375 621 397 q 692 313 673 352 q 710 215 710 275 l 710 215 l 710 210 q 683 108 710 156 q 603 30 655 60 q 476 0 551 0 l 476 0 l 54 0 l 54 813 l 456 813 q 583 787 531 813 q 663 716 635 760 q 690 618 690 673 z m 394 589 l 296 589 l 296 519 l 394 519 q 417 530 406 519 q 428 554 428 540 l 428 554 q 417 579 428 569 q 394 589 406 589 l 394 589 z m 296 244 l 404 244 q 426 255 415 244 q 436 279 436 265 l 436 279 q 426 305 436 294 q 404 315 415 315 l 404 315 l 296 315 l 296 244 z "},"c":{"ha":903,"x_min":54,"x_max":849,"o":"m 616 354 l 616 354 l 849 208 q 695 57 793 113 q 479 0 597 0 l 479 0 q 265 55 361 0 q 112 202 169 110 q 54 406 54 294 l 54 406 q 112 611 54 519 q 265 758 169 703 q 479 813 361 813 l 479 813 q 632 786 559 813 q 761 710 704 758 l 761 710 l 575 521 q 479 555 534 555 l 479 555 q 375 514 418 555 q 332 414 332 473 l 332 414 q 375 315 332 357 q 479 274 418 274 l 479 274 q 560 297 524 274 q 616 354 596 319 z "},"d":{"ha":816,"x_min":54,"x_max":762,"o":"m 355 0 l 355 0 l 54 0 l 54 813 l 355 813 q 559 758 467 813 q 707 611 652 703 q 762 406 762 519 l 762 406 q 707 202 762 294 q 559 55 652 110 q 355 0 467 0 z m 312 555 l 312 258 l 355 258 q 460 301 417 258 q 504 406 504 345 l 504 406 q 460 511 504 468 q 355 555 417 555 l 355 555 l 312 555 z "},"e":{"ha":682,"x_min":54,"x_max":628,"o":"m 628 813 l 628 579 l 296 579 l 296 531 l 614 531 l 614 303 l 296 303 l 296 258 l 628 258 l 628 0 l 54 0 l 54 813 l 628 813 z "},"f":{"ha":682,"x_min":54,"x_max":628,"o":"m 628 813 l 628 579 l 312 579 l 312 531 l 614 531 l 614 303 l 312 303 l 312 0 l 54 0 l 54 813 l 628 813 z "},"g":{"ha":903,"x_min":54,"x_max":848,"o":"m 582 313 l 490 445 l 848 445 l 848 208 q 695 57 793 113 q 479 0 597 0 l 479 0 q 265 55 361 0 q 112 202 169 110 q 54 406 54 294 l 54 406 q 112 611 54 519 q 265 758 169 703 q 479 813 361 813 l 479 813 q 632 786 559 813 q 760 710 704 758 l 760 710 l 575 521 q 479 555 534 555 l 479 555 q 374 514 418 555 q 331 414 331 473 l 331 414 q 374 315 331 357 q 479 274 418 274 l 479 274 q 582 313 538 274 l 582 313 z "},"h":{"ha":788,"x_min":54,"x_max":734,"o":"m 475 531 l 475 813 l 734 813 l 734 0 l 475 0 l 475 303 l 312 303 l 312 0 l 54 0 l 54 813 l 312 813 l 312 531 l 475 531 z "},"i":{"ha":366,"x_min":54,"x_max":312,"o":"m 312 813 l 312 0 l 54 0 l 54 813 l 312 813 z "},"j":{"ha":766,"x_min":54,"x_max":711,"o":"m 382 -8 l 382 -8 q 218 36 292 -8 q 99 155 143 81 q 54 320 54 230 l 54 320 l 54 334 l 312 334 l 312 320 q 333 270 312 291 q 382 250 353 250 l 382 250 q 433 270 412 250 q 454 320 454 291 l 454 320 l 454 579 l 250 579 l 250 813 l 711 813 l 711 320 q 667 155 711 230 q 548 36 623 81 q 382 -8 473 -8 z "},"k":{"ha":876,"x_min":54,"x_max":821,"o":"m 551 406 l 821 0 l 511 0 l 313 299 l 313 0 l 54 0 l 54 813 l 313 813 l 313 513 l 511 813 l 821 813 l 551 406 z "},"l":{"ha":661,"x_min":54,"x_max":606,"o":"m 606 258 l 606 0 l 54 0 l 54 813 l 313 813 l 313 258 l 606 258 z "},"m":{"ha":935,"x_min":54,"x_max":881,"o":"m 881 813 l 881 0 l 631 0 l 631 313 l 465 21 l 304 317 l 304 0 l 54 0 l 54 813 l 313 813 l 470 479 l 633 813 l 881 813 z "},"n":{"ha":772,"x_min":54,"x_max":718,"o":"m 718 813 l 718 0 l 503 0 l 312 304 l 312 0 l 54 0 l 54 813 l 258 813 l 460 489 l 460 813 l 718 813 z "},"o":{"ha":956,"x_min":54,"x_max":902,"o":"m 478 813 l 478 813 q 691 758 595 813 q 845 611 787 703 q 902 406 902 519 l 902 406 q 845 202 902 294 q 691 55 787 110 q 478 0 595 0 l 478 0 q 265 55 361 0 q 112 202 169 110 q 54 406 54 294 l 54 406 q 112 611 54 519 q 265 758 169 703 q 478 813 361 813 z m 478 274 l 478 274 q 582 315 539 274 q 625 414 625 357 l 625 414 q 582 514 625 473 q 478 555 539 555 l 478 555 q 374 514 417 555 q 331 414 331 473 l 331 414 q 374 315 331 357 q 478 274 417 274 z "},"p":{"ha":766,"x_min":54,"x_max":712,"o":"m 312 258 l 312 0 l 54 0 l 54 813 l 426 813 q 570 774 505 813 q 673 671 635 736 q 712 526 712 606 l 712 526 q 673 387 712 447 q 570 292 635 326 q 426 258 505 258 l 426 258 l 312 258 z m 312 579 l 312 492 l 410 492 q 442 505 429 492 q 454 536 454 517 l 454 536 q 442 566 454 553 q 410 579 429 579 l 410 579 l 312 579 z "},"q":{"ha":966,"x_min":54,"x_max":912,"o":"m 911 394 l 744 260 l 912 260 l 912 0 l 483 0 q 268 55 365 0 q 112 204 170 111 q 54 411 54 298 l 54 411 q 112 617 54 524 q 268 766 170 711 q 483 822 365 822 l 483 822 q 699 766 602 822 q 854 617 796 711 q 912 411 912 524 l 912 411 q 911 394 912 402 l 911 394 z m 334 419 l 334 419 q 378 319 334 360 q 483 277 421 277 l 483 277 q 588 319 545 277 q 632 419 632 360 l 632 419 q 588 519 632 478 q 483 561 545 561 l 483 561 q 378 519 421 561 q 334 419 334 478 z "},"r":{"ha":767,"x_min":54,"x_max":713,"o":"m 713 526 l 713 526 q 675 388 713 448 q 574 294 637 328 l 574 294 l 704 0 l 435 0 l 313 303 l 313 0 l 54 0 l 54 813 l 426 813 q 570 774 505 813 q 674 671 635 736 q 713 526 713 606 z m 410 579 l 313 579 l 313 492 l 410 492 q 442 505 430 492 q 454 536 454 517 l 454 536 q 442 566 454 553 q 410 579 430 579 l 410 579 z "},"s":{"ha":792,"x_min":54,"x_max":738,"o":"m 395 -5 l 395 -5 q 145 66 235 -5 q 54 264 54 138 l 54 264 l 54 267 l 342 267 l 342 264 q 395 212 342 216 l 395 212 q 429 221 412 212 q 445 254 445 231 l 445 254 q 430 284 445 273 q 389 304 414 296 q 331 320 363 313 l 331 320 l 323 322 q 237 346 281 331 q 153 386 192 360 q 89 456 114 412 q 64 570 64 500 l 64 570 q 151 752 64 686 q 389 818 237 818 l 389 818 q 625 750 540 818 q 709 564 709 683 l 709 564 l 709 562 l 432 562 l 432 564 q 389 608 432 606 l 389 608 q 347 574 349 608 l 347 574 q 363 546 347 557 q 405 526 378 534 q 464 509 431 517 l 464 509 l 469 508 q 559 483 512 498 q 646 441 606 467 q 712 371 686 414 q 738 260 738 328 l 738 260 q 647 65 738 136 q 395 -5 556 -5 z "},"t":{"ha":821,"x_min":54,"x_max":766,"o":"m 54 813 l 766 813 l 660 579 l 462 579 l 462 0 l 203 0 l 203 579 l 54 579 l 54 813 z "},"u":{"ha":734,"x_min":54,"x_max":680,"o":"m 367 -8 l 367 -8 q 210 34 281 -8 q 96 148 138 77 q 54 304 54 218 l 54 304 l 54 813 l 312 813 l 312 304 q 328 266 312 282 q 367 250 344 250 l 367 250 q 406 266 389 250 q 422 304 422 282 l 422 304 l 422 813 l 680 813 l 680 304 q 637 148 680 218 q 524 34 595 77 q 367 -8 453 -8 z "},"v":{"ha":780,"x_min":54,"x_max":726,"o":"m 726 813 l 351 0 l 54 0 l 54 813 l 300 813 l 300 446 l 456 813 l 726 813 z "},"w":{"ha":1182,"x_min":54,"x_max":1128,"o":"m 687 454 l 859 813 l 1128 813 l 753 0 l 457 0 l 457 364 l 335 0 l 54 0 l 54 813 l 300 813 l 300 470 l 432 813 l 687 813 l 687 454 z "},"x":{"ha":880,"x_min":54,"x_max":825,"o":"m 528 813 l 825 813 l 589 404 l 822 0 l 524 0 l 439 146 l 355 0 l 58 0 l 291 404 l 54 813 l 352 813 l 439 661 l 528 813 z "},"y":{"ha":880,"x_min":54,"x_max":825,"o":"m 528 813 l 825 813 l 568 369 l 568 0 l 311 0 l 311 369 l 54 813 l 352 813 l 439 633 l 528 813 z "},"z":{"ha":692,"x_min":54,"x_max":637,"o":"m 637 258 l 637 0 l 54 0 l 54 242 l 326 579 l 54 579 l 54 813 l 637 813 l 637 572 l 394 258 l 637 258 z "},"{":{"ha":345,"x_min":null,"x_max":null,"o":""},"|":{"ha":326,"x_min":34,"x_max":292,"o":"m 292 -170 l 34 -170 l 34 982 l 292 982 l 292 -170 z "},"}":{"ha":345,"x_min":null,"x_max":null,"o":""},"~":{"ha":4500,"x_min":68,"x_max":4433,"o":"m 275 808 l 275 808 l 275 808 q 323 822 297 817 q 368 829 349 828 q 387 825 387 831 l 387 825 q 365 784 387 823 q 312 690 343 745 l 312 690 q 210 512 245 576 q 162 423 174 449 q 153 395 150 397 l 153 395 q 191 389 157 391 q 273 387 225 387 l 273 387 l 389 387 l 383 321 q 379 277 381 301 l 379 277 q 372 200 376 232 l 372 200 l 367 146 l 335 151 q 198 212 264 161 q 95 334 132 262 l 95 334 q 77 377 83 359 q 69 418 71 395 q 68 488 68 441 l 68 488 q 69 556 68 532 q 75 596 71 580 q 90 633 80 613 l 90 633 q 275 808 148 756 z m 430 766 l 430 766 l 430 766 l 440 830 l 471 825 q 607 759 541 812 q 708 635 673 706 l 708 635 q 723 597 718 614 q 729 556 728 581 q 731 488 731 532 l 731 488 q 729 420 731 444 q 723 380 728 397 q 708 342 718 363 l 708 342 q 551 182 654 235 l 551 182 q 497 160 527 170 q 444 148 467 151 q 420 150 420 144 l 420 150 q 454 212 420 152 q 535 360 487 273 l 535 360 q 617 508 584 446 q 650 573 650 570 l 650 573 q 530 582 650 581 l 530 582 l 410 582 l 416 642 q 422 702 418 667 q 430 766 426 737 z m 1612 747 l 1612 747 l 1612 747 q 1721 758 1649 760 l 1721 758 q 1788 751 1765 756 q 1839 730 1811 746 l 1839 730 q 1952 613 1912 692 l 1952 613 q 1968 570 1965 593 q 1972 492 1972 547 l 1972 492 q 1968 415 1972 438 q 1952 372 1965 393 l 1952 372 q 1729 227 1880 234 l 1729 227 q 1619 238 1665 222 q 1531 294 1574 253 l 1531 294 q 1465 380 1484 335 q 1446 492 1446 426 l 1446 492 q 1450 556 1446 532 q 1466 606 1454 581 l 1466 606 q 1528 689 1485 648 q 1612 747 1571 730 z m 1777 608 l 1777 608 l 1777 608 q 1690 624 1733 633 q 1615 579 1646 614 q 1585 492 1585 544 l 1585 492 q 1620 398 1585 435 q 1712 361 1656 361 l 1712 361 q 1801 399 1763 361 q 1840 492 1838 437 l 1840 492 q 1821 555 1840 520 q 1777 608 1802 591 z m 3211 746 l 3211 746 l 3211 746 q 3317 760 3258 762 q 3419 739 3377 758 l 3419 739 q 3452 721 3438 730 q 3469 707 3466 711 l 3469 707 q 3462 682 3471 699 q 3440 646 3454 665 q 3414 614 3427 627 q 3396 602 3402 602 l 3396 602 q 3383 607 3392 604 l 3383 607 q 3346 620 3366 612 l 3346 620 q 3267 621 3304 634 q 3207 573 3230 608 q 3183 491 3183 539 l 3183 491 q 3220 397 3183 433 q 3313 361 3256 361 l 3313 361 l 3353 361 l 3353 416 l 3353 472 l 3419 469 l 3485 467 l 3485 370 l 3485 271 l 3446 251 q 3338 225 3405 229 q 3218 237 3270 222 l 3218 237 q 3129 294 3172 253 q 3063 380 3085 334 l 3063 380 q 3042 495 3041 433 q 3067 609 3042 558 l 3067 609 q 3130 692 3089 653 q 3211 746 3171 731 z m 1020 742 l 1020 742 l 1020 742 q 1060 750 1020 748 q 1204 750 1101 751 l 1204 750 l 1385 747 l 1385 692 l 1385 637 l 1273 635 l 1160 632 l 1160 582 l 1160 532 l 1243 529 l 1326 526 l 1326 467 l 1326 408 l 1243 405 l 1160 402 l 1160 317 l 1160 233 l 1090 235 l 1020 237 l 1017 484 q 1017 661 1017 588 q 1020 742 1018 734 z m 2061 233 l 2061 492 l 2061 492 l 2061 752 l 2136 752 l 2210 751 l 2296 609 l 2384 467 l 2384 610 l 2384 752 l 2452 752 l 2520 752 l 2520 492 l 2520 233 l 2446 235 l 2372 237 l 2287 380 l 2201 522 l 2197 380 l 2193 237 l 2127 235 l 2061 233 z m 2597 633 l 2597 692 l 2597 692 l 2597 752 l 2803 750 l 3009 747 l 3009 692 l 3009 637 l 2943 635 l 2877 632 l 2875 435 l 2873 237 l 2803 235 l 2732 233 l 2732 433 l 2732 633 l 2665 633 l 2597 633 z m 3583 233 l 3583 492 l 3583 492 l 3583 752 l 3772 750 l 3961 747 l 3961 692 l 3961 637 l 3840 635 l 3718 632 l 3718 590 l 3718 548 l 3812 548 l 3906 548 l 3906 492 l 3906 437 l 3812 437 l 3718 437 l 3718 395 l 3718 352 l 3842 352 l 3965 352 l 3965 293 l 3965 233 l 3774 233 l 3583 233 z m 4020 740 l 4020 740 l 4020 740 q 4038 747 4020 745 q 4102 751 4057 750 q 4228 752 4146 752 l 4228 752 l 4433 752 l 4433 692 l 4433 633 l 4365 633 l 4297 633 l 4297 433 l 4297 233 l 4227 235 l 4156 237 l 4154 435 l 4152 632 l 4086 635 l 4020 637 l 4017 683 q 4017 718 4017 702 q 4020 740 4017 734 z "},"¡":{"ha":345,"x_min":null,"x_max":null,"o":""},"¢":{"ha":345,"x_min":null,"x_max":null,"o":""},"£":{"ha":345,"x_min":null,"x_max":null,"o":""},"¤":{"ha":345,"x_min":null,"x_max":null,"o":""},"¥":{"ha":345,"x_min":null,"x_max":null,"o":""},"¦":{"ha":345,"x_min":null,"x_max":null,"o":""},"§":{"ha":345,"x_min":null,"x_max":null,"o":""},"¨":{"ha":345,"x_min":null,"x_max":null,"o":""},"©":{"ha":345,"x_min":null,"x_max":null,"o":""},"ª":{"ha":345,"x_min":null,"x_max":null,"o":""},"«":{"ha":345,"x_min":null,"x_max":null,"o":""},"¬":{"ha":345,"x_min":null,"x_max":null,"o":""},"®":{"ha":345,"x_min":null,"x_max":null,"o":""},"¯":{"ha":345,"x_min":null,"x_max":null,"o":""},"°":{"ha":616,"x_min":34,"x_max":582,"o":"m 308 813 l 308 813 q 446 776 384 813 q 545 677 508 739 q 582 539 582 615 l 582 539 q 545 401 582 464 q 446 302 508 339 q 308 265 384 265 l 308 265 q 170 302 233 265 q 71 401 108 339 q 34 539 34 464 l 34 539 q 71 677 34 615 q 170 776 108 739 q 308 813 233 813 z m 308 495 l 308 495 q 339 508 326 495 q 352 539 352 521 l 352 539 q 339 570 352 557 q 308 583 326 583 l 308 583 q 277 570 290 583 q 264 539 264 557 l 264 539 q 277 508 264 521 q 308 495 290 495 z "},"±":{"ha":345,"x_min":null,"x_max":null,"o":""},"²":{"ha":345,"x_min":null,"x_max":null,"o":""},"³":{"ha":345,"x_min":null,"x_max":null,"o":""},"´":{"ha":345,"x_min":null,"x_max":null,"o":""},"µ":{"ha":345,"x_min":null,"x_max":null,"o":""},"¶":{"ha":345,"x_min":null,"x_max":null,"o":""},"·":{"ha":345,"x_min":null,"x_max":null,"o":""},"¸":{"ha":345,"x_min":null,"x_max":null,"o":""},"¹":{"ha":345,"x_min":null,"x_max":null,"o":""},"º":{"ha":345,"x_min":null,"x_max":null,"o":""},"»":{"ha":345,"x_min":null,"x_max":null,"o":""},"¼":{"ha":345,"x_min":null,"x_max":null,"o":""},"½":{"ha":345,"x_min":null,"x_max":null,"o":""},"¾":{"ha":345,"x_min":null,"x_max":null,"o":""},"¿":{"ha":345,"x_min":null,"x_max":null,"o":""},"À":{"ha":1138,"x_min":34,"x_max":1816,"o":"m 481 863 l 1816 -1727 l 693 -630 l 1149 -904 l 614 275 l 486 275 l 598 -351 l 292 -20 l 260 937 l 34 1364 l 796 682 l 481 863 z m 431 642 l 441 498 l 512 498 l 431 642 z "},"Á":{"ha":1053,"x_min":32,"x_max":1742,"o":"m 572 372 l 572 372 l 746 346 q 748 345 747 346 l 748 345 q 760 318 754 331 l 760 318 q 1189 -578 946 -71 l 1189 -578 q 1741 -1731 1484 -1193 l 1741 -1731 q 1740 -1732 1742 -1733 l 1740 -1732 q 1739 -1731 1740 -1732 l 1739 -1731 q 1630 -1621 1686 -1678 l 1630 -1621 q 774 -758 1198 -1185 l 774 -758 q 755 -739 764 -748 l 755 -739 q 33 -9 394 -375 l 33 -9 q 32 246 32 119 l 32 246 q 32 250 32 248 q 33 254 33 252 l 33 254 q 33 386 33 322 l 33 386 q 32 390 33 387 q 32 394 32 393 l 32 394 q 32 710 32 548 l 32 710 q 33 712 32 711 l 33 712 l 512 854 q 512 855 513 854 l 512 855 l 299 1357 l 300 1358 q 302 1357 301 1358 l 302 1357 q 622 968 460 1165 l 622 968 q 639 950 629 960 l 639 950 q 1010 605 823 779 l 1010 605 q 1012 604 1011 605 l 1012 604 q 1010 602 1012 602 l 1010 602 q 1009 602 1010 602 l 1009 602 q 715 772 862 687 l 715 772 q 707 777 710 774 l 707 777 q 704 777 705 777 l 704 777 l 616 767 l 615 766 l 703 483 q 701 480 703 481 l 701 480 q 578 378 640 429 l 578 378 q 572 374 575 376 l 572 374 q 572 372 571 372 z m 450 521 l 423 639 l 422 640 l 254 579 l 254 578 l 254 420 l 254 419 l 410 458 l 450 521 q 450 521 450 521 l 450 521 z m 730 -143 l 730 -143 q 724 -128 727 -136 l 724 -128 q 686 -35 705 -81 l 686 -35 q 686 -31 686 -34 q 684 -28 685 -28 l 684 -28 q 682 -23 683 -25 l 682 -23 q 677 -9 680 -16 l 677 -9 q 675 -7 676 -8 l 675 -7 q 659 37 667 16 l 659 37 q 645 72 657 41 q 626 120 632 104 l 626 120 q 622 128 625 123 l 622 128 q 611 136 620 132 l 611 136 q 414 241 511 189 l 414 241 q 408 240 411 243 l 408 240 l 231 41 q 231 39 231 40 l 231 39 q 894 -593 565 -279 l 894 -593 q 901 -600 897 -597 l 901 -600 q 911 -610 907 -608 l 911 -610 q 913 -610 912 -610 l 913 -610 q 913 -606 913 -608 l 913 -606 q 911 -600 913 -606 q 907 -589 909 -593 l 907 -589 q 899 -570 903 -580 l 899 -570 q 833 -404 871 -501 l 833 -404 q 823 -379 829 -391 l 823 -379 q 758 -214 791 -298 l 758 -214 q 733 -152 747 -188 l 733 -152 q 732 -150 732 -151 q 731 -146 732 -148 l 731 -146 q 730 -143 730 -145 z "},"Â":{"ha":1042,"x_min":34,"x_max":1720,"o":"m 34 813 l 323 779 l 60 1348 l 366 970 l 773 594 l 509 684 l 239 615 l 347 -31 l 969 -745 l 866 -28 l 1720 -1703 l 34 -15 l 34 813 z "},"Ã":{"ha":1053,"x_min":34,"x_max":1731,"o":"m 34 813 l 327 746 l 68 1348 l 384 959 l 775 594 l 469 768 l 1731 -1727 l 273 -256 l 34 258 l 34 813 z m 907 -605 l 422 524 l 239 591 l 287 187 l 907 -605 z "},"Ä":{"ha":1053,"x_min":33,"x_max":1740,"o":"m 876 -528 l 876 -528 q 633 36 755 -246 l 633 36 q 633 36 633 36 l 633 36 l 634 37 q 634 37 634 37 l 634 37 l 1738 -1740 q 1737 -1740 1740 -1743 l 1737 -1740 q 581 -573 1191 -1189 l 581 -573 q 36 -23 298 -288 l 36 -23 q 33 -14 33 -20 l 33 -14 q 33 812 33 399 l 33 812 q 35 814 33 814 l 35 814 l 298 814 l 298 815 l 298 815 l 68 1352 q 69 1352 66 1355 l 69 1352 q 380 970 224 1162 l 380 970 q 398 951 387 961 l 398 951 q 779 595 589 773 l 779 595 q 779 595 779 595 l 779 595 q 779 594 781 593 l 779 594 q 475 768 627 681 l 475 768 q 473 767 473 768 l 473 767 l 568 580 l 568 580 l 568 579 q 275 579 421 579 l 275 579 q 272 578 273 579 q 270 578 271 578 l 270 578 q 239 578 255 578 l 239 578 l 239 578 l 239 418 q 239 418 239 418 l 239 418 l 509 418 q 509 417 509 418 l 509 417 l 585 236 l 585 236 q 584 235 585 235 l 584 235 l 239 235 l 239 235 l 239 86 q 240 83 239 84 l 240 83 l 875 -528 q 876 -528 876 -529 z "},"Å":{"ha":1053,"x_min":34,"x_max":1731,"o":"m 34 813 l 298 813 l 68 1348 l 384 959 l 775 594 l 469 768 l 1731 -1727 l 633 -630 l 1023 -865 l 546 238 l 271 138 l 224 420 l 467 420 l 399 579 l 214 579 l 34 446 l 34 813 z "},"Æ":{"ha":1053,"x_min":54,"x_max":1754,"o":"m 1754 -1740 l 1754 -1740 l 1740 -1740 l 55 -39 q 54 -39 54 -39 l 54 -39 q 54 334 54 153 l 54 334 q 54 341 54 336 q 54 349 54 347 l 54 349 q 54 443 54 391 l 54 443 q 54 619 54 532 l 54 619 q 54 625 54 622 l 54 625 q 54 795 54 714 l 54 795 q 56 796 54 796 l 56 796 l 363 759 l 364 760 l 108 1355 q 109 1356 108 1356 l 109 1356 q 422 970 266 1162 l 422 970 q 434 958 427 964 l 434 958 q 819 599 627 779 l 819 599 q 818 598 824 594 l 818 598 l 515 770 l 515 770 q 515 769 514 769 l 515 769 q 591 570 556 664 l 591 570 q 602 541 598 551 l 602 541 q 609 524 605 532 l 609 524 l 609 523 q 608 522 609 522 l 608 522 q 586 524 597 524 l 586 524 q 326 544 457 534 l 326 544 q 326 543 326 545 l 326 543 l 325 -8 q 326 -10 325 -9 l 326 -10 q 361 -45 356 -40 l 361 -45 q 869 -525 615 -286 l 869 -525 q 898 -550 884 -538 l 898 -550 l 712 11 q 711 12 712 12 l 711 12 l 510 157 l 787 188 q 788 187 787 188 l 788 187 q 900 -51 844 68 l 900 -51 q 923 -98 906 -64 l 923 -98 q 1754 -1740 1338 -919 z "},"Ç":{"ha":1019,"x_min":34,"x_max":1697,"o":"m 229 813 l 275 498 l 399 498 l 34 1348 l 350 959 l 741 594 l 435 768 l 1697 -1727 l 643 -661 l 1002 -903 l 495 275 l 307 275 l 399 -359 l 44 -15 l 44 813 l 229 813 z "},"È":{"ha":1091,"x_min":34,"x_max":1769,"o":"m 116 606 l 34 579 l 34 813 l 317 813 l 87 1348 l 404 959 l 795 594 l 534 743 l 321 673 l 431 -91 l 1429 -1055 l 1769 -1727 l 34 63 l 34 293 l 116 214 l 116 606 z "},"É":{"ha":1053,"x_min":34,"x_max":1731,"o":"m 422 524 l 234 593 l 34 513 l 34 813 l 326 746 l 68 1348 l 384 959 l 774 594 l 469 768 l 1731 -1727 l 34 -15 l 34 281 l 236 2 l 872 -524 l 422 524 z "},"Ê":{"ha":1043,"x_min":45,"x_max":1773,"o":"m 148 1354 l 151 1354 q 458 975 364 1090 l 458 975 q 473 960 465 968 l 473 960 q 853 605 662 784 l 853 605 q 853 604 853 605 l 853 604 q 852 604 853 604 l 852 604 q 850 604 851 603 l 850 604 q 545 777 698 690 l 545 777 q 545 777 545 778 l 545 777 q 543 458 542 616 l 543 458 l 543 457 q 541 456 542 456 l 541 456 l 541 456 l 444 513 q 441 513 442 514 l 441 513 l 360 454 q 359 452 359 453 l 359 452 q 359 451 359 452 l 359 451 q 924 -227 642 112 l 924 -227 q 926 -228 925 -227 l 926 -228 q 926 -227 927 -229 l 926 -227 q 921 -210 924 -218 l 921 -210 q 718 449 819 119 l 718 449 q 718 453 717 451 l 718 453 q 720 453 718 454 l 720 453 q 721 452 720 452 l 721 452 l 1773 -1740 l 1773 -1740 q 1773 -1742 1773 -1741 l 1773 -1742 q 1765 -1739 1768 -1743 l 1765 -1739 q 297 184 1029 -777 l 297 184 q 295 183 295 186 l 295 183 l 295 -373 q 293 -374 295 -377 l 293 -374 q 49 -3 168 -186 l 49 -3 q 46 0 47 -1 l 46 0 q 45 1 45 1 l 45 1 l 45 1 q 46 8 46 5 l 46 8 q 47 814 47 395 l 47 814 q 47 822 47 818 l 47 822 q 47 823 47 823 l 47 823 q 115 823 79 823 l 115 823 q 127 823 121 823 l 127 823 q 248 824 188 824 l 248 824 q 249 822 249 824 l 249 822 l 249 568 q 251 567 249 564 l 251 567 l 378 760 q 378 762 379 761 l 378 762 l 148 1354 z "},"Ë":{"ha":1053,"x_min":-144,"x_max":1794,"o":"m 931 -530 l 930 -530 l 292 85 q 290 89 290 86 l 290 89 l 290 758 q 291 758 290 759 l 291 758 q 564 602 427 680 l 564 602 q 566 602 565 602 l 566 602 q 566 604 566 604 l 566 604 q 180 965 380 778 l 180 965 q 171 975 175 970 l 171 975 q -142 1358 18 1163 l -142 1358 q -143 1358 -142 1359 l -143 1358 q -144 1356 -144 1358 l -144 1356 q 82 830 -31 1092 l 82 830 q 83 812 83 827 l 83 812 q 83 573 83 674 l 83 573 q 83 45 83 304 l 83 45 q 83 -14 82 15 l 83 -14 q 86 -22 83 -20 l 86 -22 q 104 -41 95 -32 l 104 -41 q 1757 -1709 946 -890 l 1757 -1709 q 1790 -1742 1774 -1726 l 1790 -1742 q 1792 -1744 1791 -1743 l 1792 -1744 l 1793 -1744 q 1794 -1742 1794 -1744 l 1794 -1742 q 1792 -1737 1794 -1740 l 1792 -1737 q 696 24 1245 -858 l 696 24 q 695 25 696 26 l 695 25 q 694 22 693 24 l 694 22 l 931 -530 z "},"Ì":{"ha":1043,"x_min":34,"x_max":1721,"o":"m 458 768 l 1721 -1727 l 667 -661 l 1025 -903 l 486 347 l 406 174 l 284 362 l 389 -359 l 34 -15 l 34 813 l 353 547 l 384 637 l 58 1348 l 374 959 l 765 594 l 458 768 z "},"Í":{"ha":1043,"x_min":29,"x_max":1771,"o":"m 31 551 l 31 551 q 31 551 31 551 z m 29 -1735 l 29 -1735 z m 1131 -958 l 1131 -958 q 1137 -961 1137 -963 l 1137 -961 q 1105 -918 1137 -960 l 1105 -918 q 1003 -781 1072 -873 l 1003 -781 q 724 -406 902 -644 l 724 -406 q 277 195 541 -159 l 277 195 q 275 195 275 198 l 275 195 q 277 187 275 195 q 280 164 278 179 q 284 136 282 149 l 284 136 q 307 -24 292 81 l 307 -24 q 312 -64 309 -43 l 312 -64 q 345 -298 319 -127 l 345 -298 q 355 -368 351 -342 l 355 -368 q 359 -399 359 -398 l 359 -399 q 52 -37 359 -399 l 52 -37 q 51 -31 51 -35 l 51 -31 l 42 382 l 42 380 q 35 720 35 709 l 35 720 q 34 766 35 745 q 32 789 33 788 q 34 795 32 790 l 34 795 q 35 795 35 795 l 35 795 q 100 711 55 771 l 100 711 q 113 694 106 703 l 113 694 q 205 574 163 626 l 205 574 q 212 565 208 569 l 212 565 l 707 -61 q 708 -63 708 -63 q 708 -60 709 -62 l 708 -60 q 514 390 521 376 l 514 390 q 507 408 513 393 l 507 408 q 498 427 503 416 l 498 427 q 466 501 484 459 q 431 584 448 543 q 401 654 414 625 q 389 684 389 684 l 389 684 l 323 836 q 311 863 323 836 l 311 863 q 101 1351 311 863 l 101 1351 q 101 1352 101 1351 q 100 1353 100 1353 l 100 1353 l 414 968 q 424 958 418 964 l 424 958 l 428 954 q 453 930 428 954 l 453 930 q 808 600 453 930 l 808 600 q 505 772 505 772 l 505 772 q 504 770 503 770 l 504 770 q 1769 -1731 1740 -1672 l 1769 -1731 q 714 -665 1767 -1729 l 714 -665 q 1145 -977 1144 -977 l 1145 -977 q 1131 -958 1147 -977 z m 98 1354 l 98 1354 q 98 1354 99 1354 z m 1771 -1732 l 1771 -1732 z m 810 600 l 810 600 z m 425 959 l 425 959 q 425 959 419 964 z m 546 -30 l 546 -30 q 546 -30 546 -30 z "},"Î":{"ha":1053,"x_min":34,"x_max":1731,"o":"m 34 813 l 326 746 l 68 1348 l 384 959 l 775 594 l 469 768 l 1731 -1727 l 34 -15 l 34 813 z m 907 -605 l 422 524 l 239 591 l 302 58 l 907 -605 z "},"Ï":{"ha":1053,"x_min":34,"x_max":1731,"o":"m 604 101 l 34 334 l 34 813 l 326 749 l 68 1348 l 384 959 l 775 594 l 469 768 l 1731 -1727 l 677 -661 l 1036 -903 l 604 101 z m 422 524 l 231 609 l 253 422 l 481 386 l 422 524 z "},"Ð":{"ha":1097,"x_min":34,"x_max":1775,"o":"m 416 -651 l 34 -651 l 366 -306 l 77 -15 l 77 813 l 370 746 l 111 1348 l 427 959 l 819 594 l 512 768 l 1775 -1727 l 532 -473 l 416 -651 z m 715 -58 l 465 524 l 283 591 l 345 58 l 551 -168 l 715 -58 z m 656 -283 l 950 -605 l 751 -140 l 656 -283 z "},"Ñ":{"ha":1053,"x_min":37,"x_max":1724,"o":"m 277 148 l 277 148 q 276 147 276 149 l 276 147 q 275 -387 275 -284 l 275 -387 l 275 -387 q 275 -387 275 -387 l 275 -387 q 275 -387 275 -387 l 275 -387 q 273 -387 274 -387 l 273 -387 q 39 -144 77 -183 l 39 -144 q 37 -140 37 -142 l 37 -140 q 39 5 37 -68 l 39 5 q 39 45 39 26 l 39 45 q 39 773 39 425 l 39 773 q 39 774 39 774 l 39 774 q 94 781 73 782 l 94 781 q 353 781 214 781 l 353 781 q 365 781 357 781 q 378 781 373 781 l 378 781 q 379 780 378 781 l 379 780 q 382 778 380 778 l 382 778 l 382 778 q 384 780 384 779 l 384 780 l 384 780 l 149 1347 l 149 1347 l 149 1348 l 149 1348 q 150 1348 150 1348 l 150 1348 q 444 972 297 1160 l 444 972 q 463 951 452 962 l 463 951 q 825 601 644 776 l 825 601 q 826 600 826 600 l 826 600 q 825 599 827 598 l 825 599 q 558 757 692 678 l 558 757 q 557 757 558 757 l 557 757 l 557 757 l 557 756 l 633 677 q 635 675 635 676 l 635 675 q 635 477 635 576 l 635 477 q 632 470 635 473 l 632 470 q 481 313 557 392 l 481 313 q 444 280 463 294 l 444 280 q 443 276 441 278 l 443 276 q 657 -63 553 103 l 657 -63 q 672 -87 665 -76 l 672 -87 q 1090 -742 881 -414 l 1090 -742 q 1420 -1259 1392 -1216 l 1420 -1259 q 1436 -1284 1428 -1272 l 1436 -1284 q 1568 -1491 1502 -1388 l 1568 -1491 q 1723 -1734 1645 -1613 l 1723 -1734 q 1724 -1735 1724 -1735 l 1724 -1735 q 1723 -1736 1724 -1737 l 1723 -1736 q 1704 -1720 1714 -1727 l 1704 -1720 q 1542 -1583 1624 -1651 l 1542 -1583 q 1512 -1558 1527 -1571 l 1512 -1558 q 1442 -1499 1488 -1537 q 1377 -1444 1396 -1461 l 1377 -1444 q 1143 -1248 1261 -1346 l 1143 -1248 q 1114 -1223 1128 -1236 l 1114 -1223 q 1061 -1179 1095 -1207 l 1061 -1179 q 422 -642 869 -1017 l 422 -642 q 419 -640 420 -640 l 419 -640 q 420 -638 417 -637 l 420 -638 q 845 -876 632 -757 l 845 -876 q 846 -876 845 -876 l 846 -876 l 846 -876 l 846 -876 q 703 -616 774 -745 l 703 -616 q 684 -582 693 -600 l 684 -582 q 663 -546 675 -567 l 663 -546 q 526 -297 597 -427 l 526 -297 q 513 -274 519 -286 l 513 -274 q 359 3 436 -135 l 359 3 q 352 16 355 9 l 352 16 q 277 148 314 84 z m 406 547 l 406 547 l 406 548 q 406 549 406 549 l 406 549 l 357 595 q 353 596 355 596 l 353 596 q 270 604 312 600 l 270 604 q 226 606 251 606 l 226 606 q 224 604 224 606 l 224 604 l 235 452 q 237 450 235 450 l 237 450 l 237 450 q 299 450 269 450 l 299 450 q 347 456 324 450 l 347 456 q 348 458 347 456 l 348 458 q 370 496 359 476 l 370 496 q 406 547 382 517 z "},"Ò":{"ha":1053,"x_min":34,"x_max":1731,"o":"m 608 90 l 34 555 l 34 813 l 322 779 l 60 1348 l 366 970 l 772 594 l 509 684 l 239 615 l 682 348 l 1731 -1727 l 34 -15 l 34 281 l 237 2 l 872 -524 l 608 90 z "},"Ó":{"ha":1037,"x_min":34,"x_max":1715,"o":"m 34 813 l 328 767 l 60 1348 l 366 970 l 773 594 l 517 682 l 415 657 l 604 -226 l 1715 -1703 l 306 -273 l 279 624 l 197 605 l 34 446 l 34 813 z "},"Ô":{"ha":1053,"x_min":34,"x_max":1731,"o":"m 34 813 l 208 813 l 302 58 l 907 -605 l 68 1348 l 384 959 l 775 594 l 469 768 l 1731 -1727 l 34 -15 l 34 813 z "},"Õ":{"ha":1053,"x_min":34,"x_max":1731,"o":"m 34 890 l 481 -138 l 907 -605 l 68 1348 l 384 959 l 775 594 l 469 768 l 1731 -1727 l 476 -499 l 34 258 l 34 890 z "},"Ö":{"ha":1055,"x_min":34,"x_max":1733,"o":"m 34 813 l 165 813 l 280 -16 l 353 323 l 703 -125 l 70 1348 l 386 959 l 777 594 l 471 768 l 1733 -1727 l 671 -667 l 1096 -940 l 475 -137 l 408 -368 l 34 -15 l 34 813 z "},"×":{"ha":1043,"x_min":34,"x_max":1721,"o":"m 137 559 l 34 489 l 34 813 l 146 813 l 289 605 l 294 813 l 58 1348 l 374 959 l 765 594 l 503 743 l 450 466 l 789 100 l 1721 -1727 l 667 -661 l 1025 -903 l 651 -28 l 416 234 l 344 -45 l 389 -359 l 138 -116 l 34 -15 l 245 440 l 137 559 z "},"Ø":{"ha":1065,"x_min":34,"x_max":1743,"o":"m 34 813 l 301 531 l 329 712 l 56 1348 l 372 959 l 763 594 l 553 713 l 453 319 l 602 -232 l 1743 -1727 l 294 -247 l 280 260 l 155 445 l 34 293 l 34 813 z "},"Ù":{"ha":1042,"x_min":34,"x_max":1721,"o":"m 422 524 l 235 593 l 34 513 l 34 813 l 327 746 l 68 1348 l 385 959 l 775 594 l 469 768 l 663 378 l 309 205 l 349 -31 l 970 -745 l 867 -28 l 1721 -1703 l 35 -15 l 35 303 l 454 450 l 422 524 z "},"Ú":{"ha":345,"x_min":null,"x_max":null,"o":""},"Û":{"ha":345,"x_min":null,"x_max":null,"o":""},"Ü":{"ha":345,"x_min":null,"x_max":null,"o":""},"Ý":{"ha":345,"x_min":null,"x_max":null,"o":""},"Þ":{"ha":345,"x_min":null,"x_max":null,"o":""},"ß":{"ha":345,"x_min":null,"x_max":null,"o":""},"à":{"ha":345,"x_min":null,"x_max":null,"o":""},"á":{"ha":345,"x_min":null,"x_max":null,"o":""},"â":{"ha":345,"x_min":null,"x_max":null,"o":""},"ã":{"ha":345,"x_min":null,"x_max":null,"o":""},"ä":{"ha":345,"x_min":null,"x_max":null,"o":""},"å":{"ha":345,"x_min":null,"x_max":null,"o":""},"æ":{"ha":1138,"x_min":34,"x_max":1816,"o":"m 481 863 l 1816 -1727 l 693 -630 l 1149 -904 l 614 275 l 486 275 l 598 -351 l 292 -20 l 260 937 l 34 1364 l 796 682 l 481 863 z m 431 642 l 441 498 l 512 498 l 431 642 z "},"ç":{"ha":1053,"x_min":32,"x_max":1742,"o":"m 572 372 l 572 372 l 746 346 q 748 345 747 346 l 748 345 q 760 318 754 331 l 760 318 q 1189 -578 946 -71 l 1189 -578 q 1741 -1731 1484 -1193 l 1741 -1731 q 1740 -1732 1742 -1733 l 1740 -1732 q 1739 -1731 1740 -1732 l 1739 -1731 q 1630 -1621 1686 -1678 l 1630 -1621 q 774 -758 1198 -1185 l 774 -758 q 755 -739 764 -748 l 755 -739 q 33 -9 394 -375 l 33 -9 q 32 246 32 119 l 32 246 q 32 250 32 248 q 33 254 33 252 l 33 254 q 33 386 33 322 l 33 386 q 32 390 33 387 q 32 394 32 393 l 32 394 q 32 710 32 548 l 32 710 q 33 712 32 711 l 33 712 l 512 854 q 512 855 513 854 l 512 855 l 299 1357 l 300 1358 q 302 1357 301 1358 l 302 1357 q 622 968 460 1165 l 622 968 q 639 950 629 960 l 639 950 q 1010 605 823 779 l 1010 605 q 1012 604 1011 605 l 1012 604 q 1010 602 1012 602 l 1010 602 q 1009 602 1010 602 l 1009 602 q 715 772 862 687 l 715 772 q 707 777 710 774 l 707 777 q 704 777 705 777 l 704 777 l 616 767 l 615 766 l 703 483 q 701 480 703 481 l 701 480 q 578 378 640 429 l 578 378 q 572 374 575 376 l 572 374 q 572 372 571 372 z m 450 521 l 423 639 l 422 640 l 254 579 l 254 578 l 254 420 l 254 419 l 410 458 l 450 521 q 450 521 450 521 l 450 521 z m 730 -143 l 730 -143 q 724 -128 727 -136 l 724 -128 q 686 -35 705 -81 l 686 -35 q 686 -31 686 -34 q 684 -28 685 -28 l 684 -28 q 682 -23 683 -25 l 682 -23 q 677 -9 680 -16 l 677 -9 q 675 -7 676 -8 l 675 -7 q 659 37 667 16 l 659 37 q 645 72 657 41 q 626 120 632 104 l 626 120 q 622 128 625 123 l 622 128 q 611 136 620 132 l 611 136 q 414 241 511 189 l 414 241 q 408 240 411 243 l 408 240 l 231 41 q 231 39 231 40 l 231 39 q 894 -593 565 -279 l 894 -593 q 901 -600 897 -597 l 901 -600 q 911 -610 907 -608 l 911 -610 q 913 -610 912 -610 l 913 -610 q 913 -606 913 -608 l 913 -606 q 911 -600 913 -606 q 907 -589 909 -593 l 907 -589 q 899 -570 903 -580 l 899 -570 q 833 -404 871 -501 l 833 -404 q 823 -379 829 -391 l 823 -379 q 758 -214 791 -298 l 758 -214 q 733 -152 747 -188 l 733 -152 q 732 -150 732 -151 q 731 -146 732 -148 l 731 -146 q 730 -143 730 -145 z "},"è":{"ha":1042,"x_min":34,"x_max":1720,"o":"m 34 813 l 323 779 l 60 1348 l 366 970 l 773 594 l 509 684 l 239 615 l 347 -31 l 969 -745 l 866 -28 l 1720 -1703 l 34 -15 l 34 813 z "},"é":{"ha":1053,"x_min":34,"x_max":1731,"o":"m 34 813 l 327 746 l 68 1348 l 384 959 l 775 594 l 469 768 l 1731 -1727 l 273 -256 l 34 258 l 34 813 z m 907 -605 l 422 524 l 239 591 l 287 187 l 907 -605 z "},"ê":{"ha":1053,"x_min":33,"x_max":1740,"o":"m 876 -528 l 876 -528 q 633 36 755 -246 l 633 36 q 633 36 633 36 l 633 36 l 634 37 q 634 37 634 37 l 634 37 l 1738 -1740 q 1737 -1740 1740 -1743 l 1737 -1740 q 581 -573 1191 -1189 l 581 -573 q 36 -23 298 -288 l 36 -23 q 33 -14 33 -20 l 33 -14 q 33 812 33 399 l 33 812 q 35 814 33 814 l 35 814 l 298 814 l 298 815 l 298 815 l 68 1352 q 69 1352 66 1355 l 69 1352 q 380 970 224 1162 l 380 970 q 398 951 387 961 l 398 951 q 779 595 589 773 l 779 595 q 779 595 779 595 l 779 595 q 779 594 781 593 l 779 594 q 475 768 627 681 l 475 768 q 473 767 473 768 l 473 767 l 568 580 l 568 580 l 568 579 q 275 579 421 579 l 275 579 q 272 578 273 579 q 270 578 271 578 l 270 578 q 239 578 255 578 l 239 578 l 239 578 l 239 418 q 239 418 239 418 l 239 418 l 509 418 q 509 417 509 418 l 509 417 l 585 236 l 585 236 q 584 235 585 235 l 584 235 l 239 235 l 239 235 l 239 86 q 240 83 239 84 l 240 83 l 875 -528 q 876 -528 876 -529 z "},"ë":{"ha":1053,"x_min":34,"x_max":1731,"o":"m 34 813 l 298 813 l 68 1348 l 384 959 l 775 594 l 469 768 l 1731 -1727 l 633 -630 l 1023 -865 l 546 238 l 271 138 l 224 420 l 467 420 l 399 579 l 214 579 l 34 446 l 34 813 z "},"ì":{"ha":1053,"x_min":54,"x_max":1754,"o":"m 1754 -1740 l 1754 -1740 l 1740 -1740 l 55 -39 q 54 -39 54 -39 l 54 -39 q 54 334 54 153 l 54 334 q 54 341 54 336 q 54 349 54 347 l 54 349 q 54 443 54 391 l 54 443 q 54 619 54 532 l 54 619 q 54 625 54 622 l 54 625 q 54 795 54 714 l 54 795 q 56 796 54 796 l 56 796 l 363 759 l 364 760 l 108 1355 q 109 1356 108 1356 l 109 1356 q 422 970 266 1162 l 422 970 q 434 958 427 964 l 434 958 q 819 599 627 779 l 819 599 q 818 598 824 594 l 818 598 l 515 770 l 515 770 q 515 769 514 769 l 515 769 q 591 570 556 664 l 591 570 q 602 541 598 551 l 602 541 q 609 524 605 532 l 609 524 l 609 523 q 608 522 609 522 l 608 522 q 586 524 597 524 l 586 524 q 326 544 457 534 l 326 544 q 326 543 326 545 l 326 543 l 325 -8 q 326 -10 325 -9 l 326 -10 q 361 -45 356 -40 l 361 -45 q 869 -525 615 -286 l 869 -525 q 898 -550 884 -538 l 898 -550 l 712 11 q 711 12 712 12 l 711 12 l 510 157 l 787 188 q 788 187 787 188 l 788 187 q 900 -51 844 68 l 900 -51 q 923 -98 906 -64 l 923 -98 q 1754 -1740 1338 -919 z "},"í":{"ha":1019,"x_min":34,"x_max":1697,"o":"m 229 813 l 275 498 l 399 498 l 34 1348 l 350 959 l 741 594 l 435 768 l 1697 -1727 l 643 -661 l 1002 -903 l 495 275 l 307 275 l 399 -359 l 44 -15 l 44 813 l 229 813 z "},"î":{"ha":1091,"x_min":34,"x_max":1769,"o":"m 116 606 l 34 579 l 34 813 l 317 813 l 87 1348 l 404 959 l 795 594 l 534 743 l 321 673 l 431 -91 l 1429 -1055 l 1769 -1727 l 34 63 l 34 293 l 116 214 l 116 606 z "},"ï":{"ha":1053,"x_min":34,"x_max":1731,"o":"m 422 524 l 234 593 l 34 513 l 34 813 l 326 746 l 68 1348 l 384 959 l 774 594 l 469 768 l 1731 -1727 l 34 -15 l 34 281 l 236 2 l 872 -524 l 422 524 z "},"ð":{"ha":1043,"x_min":45,"x_max":1773,"o":"m 148 1354 l 151 1354 q 458 975 364 1090 l 458 975 q 473 960 465 968 l 473 960 q 853 605 662 784 l 853 605 q 853 604 853 605 l 853 604 q 852 604 853 604 l 852 604 q 850 604 851 603 l 850 604 q 545 777 698 690 l 545 777 q 545 777 545 778 l 545 777 q 543 458 542 616 l 543 458 l 543 457 q 541 456 542 456 l 541 456 l 541 456 l 444 513 q 441 513 442 514 l 441 513 l 360 454 q 359 452 359 453 l 359 452 q 359 451 359 452 l 359 451 q 924 -227 642 112 l 924 -227 q 926 -228 925 -227 l 926 -228 q 926 -227 927 -229 l 926 -227 q 921 -210 924 -218 l 921 -210 q 718 449 819 119 l 718 449 q 718 453 717 451 l 718 453 q 720 453 718 454 l 720 453 q 721 452 720 452 l 721 452 l 1773 -1740 l 1773 -1740 q 1773 -1742 1773 -1741 l 1773 -1742 q 1765 -1739 1768 -1743 l 1765 -1739 q 297 184 1029 -777 l 297 184 q 295 183 295 186 l 295 183 l 295 -373 q 293 -374 295 -377 l 293 -374 q 49 -3 168 -186 l 49 -3 q 46 0 47 -1 l 46 0 q 45 1 45 1 l 45 1 l 45 1 q 46 8 46 5 l 46 8 q 47 814 47 395 l 47 814 q 47 822 47 818 l 47 822 q 47 823 47 823 l 47 823 q 115 823 79 823 l 115 823 q 127 823 121 823 l 127 823 q 248 824 188 824 l 248 824 q 249 822 249 824 l 249 822 l 249 568 q 251 567 249 564 l 251 567 l 378 760 q 378 762 379 761 l 378 762 l 148 1354 z "},"ñ":{"ha":1053,"x_min":-144,"x_max":1794,"o":"m 931 -530 l 930 -530 l 292 85 q 290 89 290 86 l 290 89 l 290 758 q 291 758 290 759 l 291 758 q 564 602 427 680 l 564 602 q 566 602 565 602 l 566 602 q 566 604 566 604 l 566 604 q 180 965 380 778 l 180 965 q 171 975 175 970 l 171 975 q -142 1358 18 1163 l -142 1358 q -143 1358 -142 1359 l -143 1358 q -144 1356 -144 1358 l -144 1356 q 82 830 -31 1092 l 82 830 q 83 812 83 827 l 83 812 q 83 573 83 674 l 83 573 q 83 45 83 304 l 83 45 q 83 -14 82 15 l 83 -14 q 86 -22 83 -20 l 86 -22 q 104 -41 95 -32 l 104 -41 q 1757 -1709 946 -890 l 1757 -1709 q 1790 -1742 1774 -1726 l 1790 -1742 q 1792 -1744 1791 -1743 l 1792 -1744 l 1793 -1744 q 1794 -1742 1794 -1744 l 1794 -1742 q 1792 -1737 1794 -1740 l 1792 -1737 q 696 24 1245 -858 l 696 24 q 695 25 696 26 l 695 25 q 694 22 693 24 l 694 22 l 931 -530 z "},"ò":{"ha":1043,"x_min":34,"x_max":1721,"o":"m 458 768 l 1721 -1727 l 667 -661 l 1025 -903 l 486 347 l 406 174 l 284 362 l 389 -359 l 34 -15 l 34 813 l 353 547 l 384 637 l 58 1348 l 374 959 l 765 594 l 458 768 z "},"ó":{"ha":1043,"x_min":29,"x_max":1771,"o":"m 31 551 l 31 551 q 31 551 31 551 z m 29 -1735 l 29 -1735 z m 1131 -958 l 1131 -958 q 1137 -961 1137 -963 l 1137 -961 q 1105 -918 1137 -960 l 1105 -918 q 1003 -781 1072 -873 l 1003 -781 q 724 -406 902 -644 l 724 -406 q 277 195 541 -159 l 277 195 q 275 195 275 198 l 275 195 q 277 187 275 195 q 280 164 278 179 q 284 136 282 149 l 284 136 q 307 -24 292 81 l 307 -24 q 312 -64 309 -43 l 312 -64 q 345 -298 319 -127 l 345 -298 q 355 -368 351 -342 l 355 -368 q 359 -399 359 -398 l 359 -399 q 52 -37 359 -399 l 52 -37 q 51 -31 51 -35 l 51 -31 l 42 382 l 42 380 q 35 720 35 709 l 35 720 q 34 766 35 745 q 32 789 33 788 q 34 795 32 790 l 34 795 q 35 795 35 795 l 35 795 q 100 711 55 771 l 100 711 q 113 694 106 703 l 113 694 q 205 574 163 626 l 205 574 q 212 565 208 569 l 212 565 l 707 -61 q 708 -63 708 -63 q 708 -60 709 -62 l 708 -60 q 514 390 521 376 l 514 390 q 507 408 513 393 l 507 408 q 498 427 503 416 l 498 427 q 466 501 484 459 q 431 584 448 543 q 401 654 414 625 q 389 684 389 684 l 389 684 l 323 836 q 311 863 323 836 l 311 863 q 101 1351 311 863 l 101 1351 q 101 1352 101 1351 q 100 1353 100 1353 l 100 1353 l 414 968 q 424 958 418 964 l 424 958 l 428 954 q 453 930 428 954 l 453 930 q 808 600 453 930 l 808 600 q 505 772 505 772 l 505 772 q 504 770 503 770 l 504 770 q 1769 -1731 1740 -1672 l 1769 -1731 q 714 -665 1767 -1729 l 714 -665 q 1145 -977 1144 -977 l 1145 -977 q 1131 -958 1147 -977 z m 98 1354 l 98 1354 q 98 1354 99 1354 z m 1771 -1732 l 1771 -1732 z m 810 600 l 810 600 z m 425 959 l 425 959 q 425 959 419 964 z m 546 -30 l 546 -30 q 546 -30 546 -30 z "},"ô":{"ha":1053,"x_min":34,"x_max":1731,"o":"m 34 813 l 326 746 l 68 1348 l 384 959 l 775 594 l 469 768 l 1731 -1727 l 34 -15 l 34 813 z m 907 -605 l 422 524 l 239 591 l 302 58 l 907 -605 z "},"õ":{"ha":1053,"x_min":34,"x_max":1731,"o":"m 604 101 l 34 334 l 34 813 l 326 749 l 68 1348 l 384 959 l 775 594 l 469 768 l 1731 -1727 l 677 -661 l 1036 -903 l 604 101 z m 422 524 l 231 609 l 253 422 l 481 386 l 422 524 z "},"ö":{"ha":1097,"x_min":34,"x_max":1775,"o":"m 416 -651 l 34 -651 l 366 -306 l 77 -15 l 77 813 l 370 746 l 111 1348 l 427 959 l 819 594 l 512 768 l 1775 -1727 l 532 -473 l 416 -651 z m 715 -58 l 465 524 l 283 591 l 345 58 l 551 -168 l 715 -58 z m 656 -283 l 950 -605 l 751 -140 l 656 -283 z "},"÷":{"ha":1053,"x_min":37,"x_max":1724,"o":"m 277 148 l 277 148 q 276 147 276 149 l 276 147 q 275 -387 275 -284 l 275 -387 l 275 -387 q 275 -387 275 -387 l 275 -387 q 275 -387 275 -387 l 275 -387 q 273 -387 274 -387 l 273 -387 q 39 -144 77 -183 l 39 -144 q 37 -140 37 -142 l 37 -140 q 39 5 37 -68 l 39 5 q 39 45 39 26 l 39 45 q 39 773 39 425 l 39 773 q 39 774 39 774 l 39 774 q 94 781 73 782 l 94 781 q 353 781 214 781 l 353 781 q 365 781 357 781 q 378 781 373 781 l 378 781 q 379 780 378 781 l 379 780 q 382 778 380 778 l 382 778 l 382 778 q 384 780 384 779 l 384 780 l 384 780 l 149 1347 l 149 1347 l 149 1348 l 149 1348 q 150 1348 150 1348 l 150 1348 q 444 972 297 1160 l 444 972 q 463 951 452 962 l 463 951 q 825 601 644 776 l 825 601 q 826 600 826 600 l 826 600 q 825 599 827 598 l 825 599 q 558 757 692 678 l 558 757 q 557 757 558 757 l 557 757 l 557 757 l 557 756 l 633 677 q 635 675 635 676 l 635 675 q 635 477 635 576 l 635 477 q 632 470 635 473 l 632 470 q 481 313 557 392 l 481 313 q 444 280 463 294 l 444 280 q 443 276 441 278 l 443 276 q 657 -63 553 103 l 657 -63 q 672 -87 665 -76 l 672 -87 q 1090 -742 881 -414 l 1090 -742 q 1420 -1259 1392 -1216 l 1420 -1259 q 1436 -1284 1428 -1272 l 1436 -1284 q 1568 -1491 1502 -1388 l 1568 -1491 q 1723 -1734 1645 -1613 l 1723 -1734 q 1724 -1735 1724 -1735 l 1724 -1735 q 1723 -1736 1724 -1737 l 1723 -1736 q 1704 -1720 1714 -1727 l 1704 -1720 q 1542 -1583 1624 -1651 l 1542 -1583 q 1512 -1558 1527 -1571 l 1512 -1558 q 1442 -1499 1488 -1537 q 1377 -1444 1396 -1461 l 1377 -1444 q 1143 -1248 1261 -1346 l 1143 -1248 q 1114 -1223 1128 -1236 l 1114 -1223 q 1061 -1179 1095 -1207 l 1061 -1179 q 422 -642 869 -1017 l 422 -642 q 419 -640 420 -640 l 419 -640 q 420 -638 417 -637 l 420 -638 q 845 -876 632 -757 l 845 -876 q 846 -876 845 -876 l 846 -876 l 846 -876 l 846 -876 q 703 -616 774 -745 l 703 -616 q 684 -582 693 -600 l 684 -582 q 663 -546 675 -567 l 663 -546 q 526 -297 597 -427 l 526 -297 q 513 -274 519 -286 l 513 -274 q 359 3 436 -135 l 359 3 q 352 16 355 9 l 352 16 q 277 148 314 84 z m 406 547 l 406 547 l 406 548 q 406 549 406 549 l 406 549 l 357 595 q 353 596 355 596 l 353 596 q 270 604 312 600 l 270 604 q 226 606 251 606 l 226 606 q 224 604 224 606 l 224 604 l 235 452 q 237 450 235 450 l 237 450 l 237 450 q 299 450 269 450 l 299 450 q 347 456 324 450 l 347 456 q 348 458 347 456 l 348 458 q 370 496 359 476 l 370 496 q 406 547 382 517 z "},"ø":{"ha":1053,"x_min":34,"x_max":1731,"o":"m 608 90 l 34 555 l 34 813 l 322 779 l 60 1348 l 366 970 l 772 594 l 509 684 l 239 615 l 682 348 l 1731 -1727 l 34 -15 l 34 281 l 237 2 l 872 -524 l 608 90 z "},"ù":{"ha":1037,"x_min":34,"x_max":1715,"o":"m 34 813 l 328 767 l 60 1348 l 366 970 l 773 594 l 517 682 l 415 657 l 604 -226 l 1715 -1703 l 306 -273 l 279 624 l 197 605 l 34 446 l 34 813 z "},"ú":{"ha":1053,"x_min":34,"x_max":1731,"o":"m 34 813 l 208 813 l 302 58 l 907 -605 l 68 1348 l 384 959 l 775 594 l 469 768 l 1731 -1727 l 34 -15 l 34 813 z "},"û":{"ha":1053,"x_min":34,"x_max":1731,"o":"m 34 890 l 481 -138 l 907 -605 l 68 1348 l 384 959 l 775 594 l 469 768 l 1731 -1727 l 476 -499 l 34 258 l 34 890 z "},"ü":{"ha":1055,"x_min":34,"x_max":1733,"o":"m 34 813 l 165 813 l 280 -16 l 353 323 l 703 -125 l 70 1348 l 386 959 l 777 594 l 471 768 l 1733 -1727 l 671 -667 l 1096 -940 l 475 -137 l 408 -368 l 34 -15 l 34 813 z "},"ý":{"ha":1043,"x_min":34,"x_max":1721,"o":"m 137 559 l 34 489 l 34 813 l 146 813 l 289 605 l 294 813 l 58 1348 l 374 959 l 765 594 l 503 743 l 450 466 l 789 100 l 1721 -1727 l 667 -661 l 1025 -903 l 651 -28 l 416 234 l 344 -45 l 389 -359 l 138 -116 l 34 -15 l 245 440 l 137 559 z "},"þ":{"ha":1065,"x_min":34,"x_max":1743,"o":"m 34 813 l 301 531 l 329 712 l 56 1348 l 372 959 l 763 594 l 553 713 l 453 319 l 602 -232 l 1743 -1727 l 294 -247 l 280 260 l 155 445 l 34 293 l 34 813 z "},"ÿ":{"ha":1042,"x_min":34,"x_max":1721,"o":"m 422 524 l 235 593 l 34 513 l 34 813 l 327 746 l 68 1348 l 385 959 l 775 594 l 469 768 l 663 378 l 309 205 l 349 -31 l 970 -745 l 867 -28 l 1721 -1703 l 35 -15 l 35 303 l 454 450 l 422 524 z "},"ı":{"ha":345,"x_min":null,"x_max":null,"o":""},"̀":{"ha":345,"x_min":null,"x_max":null,"o":""},"́":{"ha":345,"x_min":null,"x_max":null,"o":""},"̂":{"ha":345,"x_min":null,"x_max":null,"o":""},"̃":{"ha":345,"x_min":null,"x_max":null,"o":""},"̄":{"ha":345,"x_min":null,"x_max":null,"o":""},"̇":{"ha":345,"x_min":null,"x_max":null,"o":""},"̈":{"ha":345,"x_min":null,"x_max":null,"o":""},"̉":{"ha":4500,"x_min":68,"x_max":4433,"o":"m 275 808 l 275 808 l 275 808 q 323 822 297 817 q 368 829 349 828 q 387 825 387 831 l 387 825 q 365 784 387 823 q 312 690 343 745 l 312 690 q 210 512 245 576 q 162 423 174 449 q 153 395 150 397 l 153 395 q 191 389 157 391 q 273 387 225 387 l 273 387 l 389 387 l 383 321 q 379 277 381 301 l 379 277 q 372 200 376 232 l 372 200 l 367 146 l 335 151 q 198 212 264 161 q 95 334 132 262 l 95 334 q 77 377 83 359 q 69 418 71 395 q 68 488 68 441 l 68 488 q 69 556 68 532 q 75 596 71 580 q 90 633 80 613 l 90 633 q 275 808 148 756 z m 430 766 l 430 766 l 430 766 l 440 830 l 471 825 q 607 759 541 812 q 708 635 673 706 l 708 635 q 723 597 718 614 q 729 556 728 581 q 731 488 731 532 l 731 488 q 729 420 731 444 q 723 380 728 397 q 708 342 718 363 l 708 342 q 551 182 654 235 l 551 182 q 497 160 527 170 q 444 148 467 151 q 420 150 420 144 l 420 150 q 454 212 420 152 q 535 360 487 273 l 535 360 q 617 508 584 446 q 650 573 650 570 l 650 573 q 530 582 650 581 l 530 582 l 410 582 l 416 642 q 422 702 418 667 q 430 766 426 737 z m 1612 747 l 1612 747 l 1612 747 q 1721 758 1649 760 l 1721 758 q 1788 751 1765 756 q 1839 730 1811 746 l 1839 730 q 1952 613 1912 692 l 1952 613 q 1968 570 1965 593 q 1972 492 1972 547 l 1972 492 q 1968 415 1972 438 q 1952 372 1965 393 l 1952 372 q 1729 227 1880 234 l 1729 227 q 1619 238 1665 222 q 1531 294 1574 253 l 1531 294 q 1465 380 1484 335 q 1446 492 1446 426 l 1446 492 q 1450 556 1446 532 q 1466 606 1454 581 l 1466 606 q 1528 689 1485 648 q 1612 747 1571 730 z m 1777 608 l 1777 608 l 1777 608 q 1690 624 1733 633 q 1615 579 1646 614 q 1585 492 1585 544 l 1585 492 q 1620 398 1585 435 q 1712 361 1656 361 l 1712 361 q 1801 399 1763 361 q 1840 492 1838 437 l 1840 492 q 1821 555 1840 520 q 1777 608 1802 591 z m 3211 746 l 3211 746 l 3211 746 q 3317 760 3258 762 q 3419 739 3377 758 l 3419 739 q 3452 721 3438 730 q 3469 707 3466 711 l 3469 707 q 3462 682 3471 699 q 3440 646 3454 665 q 3414 614 3427 627 q 3396 602 3402 602 l 3396 602 q 3383 607 3392 604 l 3383 607 q 3346 620 3366 612 l 3346 620 q 3267 621 3304 634 q 3207 573 3230 608 q 3183 491 3183 539 l 3183 491 q 3220 397 3183 433 q 3313 361 3256 361 l 3313 361 l 3353 361 l 3353 416 l 3353 472 l 3419 469 l 3485 467 l 3485 370 l 3485 271 l 3446 251 q 3338 225 3405 229 q 3218 237 3270 222 l 3218 237 q 3129 294 3172 253 q 3063 380 3085 334 l 3063 380 q 3042 495 3041 433 q 3067 609 3042 558 l 3067 609 q 3130 692 3089 653 q 3211 746 3171 731 z m 1020 742 l 1020 742 l 1020 742 q 1060 750 1020 748 q 1204 750 1101 751 l 1204 750 l 1385 747 l 1385 692 l 1385 637 l 1273 635 l 1160 632 l 1160 582 l 1160 532 l 1243 529 l 1326 526 l 1326 467 l 1326 408 l 1243 405 l 1160 402 l 1160 317 l 1160 233 l 1090 235 l 1020 237 l 1017 484 q 1017 661 1017 588 q 1020 742 1018 734 z m 2061 233 l 2061 492 l 2061 492 l 2061 752 l 2136 752 l 2210 751 l 2296 609 l 2384 467 l 2384 610 l 2384 752 l 2452 752 l 2520 752 l 2520 492 l 2520 233 l 2446 235 l 2372 237 l 2287 380 l 2201 522 l 2197 380 l 2193 237 l 2127 235 l 2061 233 z m 2597 633 l 2597 692 l 2597 692 l 2597 752 l 2803 750 l 3009 747 l 3009 692 l 3009 637 l 2943 635 l 2877 632 l 2875 435 l 2873 237 l 2803 235 l 2732 233 l 2732 433 l 2732 633 l 2665 633 l 2597 633 z m 3583 233 l 3583 492 l 3583 492 l 3583 752 l 3772 750 l 3961 747 l 3961 692 l 3961 637 l 3840 635 l 3718 632 l 3718 590 l 3718 548 l 3812 548 l 3906 548 l 3906 492 l 3906 437 l 3812 437 l 3718 437 l 3718 395 l 3718 352 l 3842 352 l 3965 352 l 3965 293 l 3965 233 l 3774 233 l 3583 233 z m 4020 740 l 4020 740 l 4020 740 q 4038 747 4020 745 q 4102 751 4057 750 q 4228 752 4146 752 l 4228 752 l 4433 752 l 4433 692 l 4433 633 l 4365 633 l 4297 633 l 4297 433 l 4297 233 l 4227 235 l 4156 237 l 4154 435 l 4152 632 l 4086 635 l 4020 637 l 4017 683 q 4017 718 4017 702 q 4020 740 4017 734 z "},"̊":{"ha":345,"x_min":null,"x_max":null,"o":""},"̌":{"ha":345,"x_min":null,"x_max":null,"o":""},"̧":{"ha":345,"x_min":null,"x_max":null,"o":""},"–":{"ha":488,"x_min":34,"x_max":454,"o":"m 454 288 l 34 288 l 34 526 l 454 526 l 454 288 z "},"—":{"ha":488,"x_min":34,"x_max":454,"o":"m 454 288 l 34 288 l 34 526 l 454 526 l 454 288 z "},"‘":{"ha":326,"x_min":34,"x_max":292,"o":"m 34 699 l 292 813 l 292 431 l 34 431 l 34 699 z "},"’":{"ha":326,"x_min":34,"x_max":292,"o":"m 292 546 l 34 431 l 34 813 l 292 813 l 292 546 z "},"‚":{"ha":345,"x_min":null,"x_max":null,"o":""},"“":{"ha":631,"x_min":34,"x_max":597,"o":"m 339 699 l 597 813 l 597 431 l 339 431 l 339 699 z m 34 699 l 292 813 l 292 431 l 34 431 l 34 699 z "},"”":{"ha":631,"x_min":34,"x_max":597,"o":"m 292 546 l 34 431 l 34 813 l 292 813 l 292 546 z m 597 546 l 339 431 l 339 813 l 597 813 l 597 546 z "},"„":{"ha":345,"x_min":null,"x_max":null,"o":""},"†":{"ha":345,"x_min":null,"x_max":null,"o":""},"‡":{"ha":345,"x_min":null,"x_max":null,"o":""},"•":{"ha":345,"x_min":null,"x_max":null,"o":""},"…":{"ha":345,"x_min":null,"x_max":null,"o":""},"‹":{"ha":345,"x_min":null,"x_max":null,"o":""},"›":{"ha":345,"x_min":null,"x_max":null,"o":""},"⁄":{"ha":450,"x_min":-36,"x_max":510,"o":"m -36 -170 l 245 982 l 510 982 l 229 -170 l -36 -170 z "},"₣":{"ha":345,"x_min":null,"x_max":null,"o":""},"₤":{"ha":345,"x_min":null,"x_max":null,"o":""},"₧":{"ha":345,"x_min":null,"x_max":null,"o":""},"€":{"ha":345,"x_min":null,"x_max":null,"o":""},"№":{"ha":345,"x_min":null,"x_max":null,"o":""},"™":{"ha":345,"x_min":null,"x_max":null,"o":""},"∂":{"ha":345,"x_min":null,"x_max":null,"o":""},"∆":{"ha":345,"x_min":null,"x_max":null,"o":""},"∏":{"ha":345,"x_min":null,"x_max":null,"o":""},"∑":{"ha":345,"x_min":null,"x_max":null,"o":""},"−":{"ha":488,"x_min":34,"x_max":454,"o":"m 454 288 l 34 288 l 34 526 l 454 526 l 454 288 z "},"√":{"ha":345,"x_min":null,"x_max":null,"o":""},"∞":{"ha":345,"x_min":null,"x_max":null,"o":""},"∫":{"ha":345,"x_min":null,"x_max":null,"o":""},"≈":{"ha":345,"x_min":null,"x_max":null,"o":""},"≤":{"ha":345,"x_min":null,"x_max":null,"o":""},"≥":{"ha":345,"x_min":null,"x_max":null,"o":""},"ﬁ":{"ha":345,"x_min":null,"x_max":null,"o":""},"ﬂ":{"ha":345,"x_min":null,"x_max":null,"o":""}}}
